<mxfile host="app.diagrams.net" modified="2022-12-13T21:14:18.045Z" agent="5.0 (Windows NT 10.0; Win64; x64) AppleWebKit/537.36 (KHTML, like Gecko) Chrome/108.0.0.0 Safari/537.36 Edg/108.0.1462.42" etag="TwMWWPvxI1BppnqRImTr" version="20.6.2" type="github">
  <diagram id="C5RBs43oDa-KdzZeNtuy" name="Page-1">
    <mxGraphModel dx="1422" dy="786" grid="1" gridSize="10" guides="1" tooltips="1" connect="1" arrows="1" fold="1" page="1" pageScale="1" pageWidth="827" pageHeight="1169" math="0" shadow="0">
      <root>
        <mxCell id="WIyWlLk6GJQsqaUBKTNV-0" />
        <mxCell id="WIyWlLk6GJQsqaUBKTNV-1" parent="WIyWlLk6GJQsqaUBKTNV-0" />
        <mxCell id="3HSXQvJnY2hMBEqrZg__-0" value="" style="outlineConnect=0;dashed=0;verticalLabelPosition=bottom;verticalAlign=top;align=center;html=1;shape=mxgraph.aws3.virtual_private_cloud;fillColor=#F58534;gradientColor=none;" vertex="1" parent="WIyWlLk6GJQsqaUBKTNV-1">
          <mxGeometry y="20" width="170" height="110" as="geometry" />
        </mxCell>
        <mxCell id="3HSXQvJnY2hMBEqrZg__-2" value="VPC" style="points=[[0,0],[0.25,0],[0.5,0],[0.75,0],[1,0],[1,0.25],[1,0.5],[1,0.75],[1,1],[0.75,1],[0.5,1],[0.25,1],[0,1],[0,0.75],[0,0.5],[0,0.25]];outlineConnect=0;gradientColor=none;html=1;whiteSpace=wrap;fontSize=12;fontStyle=0;container=1;pointerEvents=0;collapsible=0;recursiveResize=0;shape=mxgraph.aws4.group;grIcon=mxgraph.aws4.group_vpc;strokeColor=#248814;fillColor=none;verticalAlign=top;align=left;spacingLeft=30;fontColor=#AAB7B8;dashed=0;" vertex="1" parent="WIyWlLk6GJQsqaUBKTNV-1">
          <mxGeometry x="250" y="90" width="780" height="545" as="geometry" />
        </mxCell>
        <mxCell id="3HSXQvJnY2hMBEqrZg__-6" value="Public subnet" style="points=[[0,0],[0.25,0],[0.5,0],[0.75,0],[1,0],[1,0.25],[1,0.5],[1,0.75],[1,1],[0.75,1],[0.5,1],[0.25,1],[0,1],[0,0.75],[0,0.5],[0,0.25]];outlineConnect=0;gradientColor=none;html=1;whiteSpace=wrap;fontSize=12;fontStyle=0;container=1;pointerEvents=0;collapsible=0;recursiveResize=0;shape=mxgraph.aws4.group;grIcon=mxgraph.aws4.group_security_group;grStroke=0;strokeColor=#248814;fillColor=#E9F3E6;verticalAlign=top;align=left;spacingLeft=30;fontColor=#248814;dashed=0;" vertex="1" parent="3HSXQvJnY2hMBEqrZg__-2">
          <mxGeometry x="200" y="80" width="100" height="89" as="geometry" />
        </mxCell>
        <mxCell id="3HSXQvJnY2hMBEqrZg__-44" value="" style="outlineConnect=0;dashed=0;verticalLabelPosition=bottom;verticalAlign=top;align=center;html=1;shape=mxgraph.aws3.vpc_nat_gateway;fillColor=#F58536;gradientColor=none;" vertex="1" parent="3HSXQvJnY2hMBEqrZg__-6">
          <mxGeometry x="10" y="57" width="35" height="32" as="geometry" />
        </mxCell>
        <mxCell id="3HSXQvJnY2hMBEqrZg__-7" value="Private subnet" style="points=[[0,0],[0.25,0],[0.5,0],[0.75,0],[1,0],[1,0.25],[1,0.5],[1,0.75],[1,1],[0.75,1],[0.5,1],[0.25,1],[0,1],[0,0.75],[0,0.5],[0,0.25]];outlineConnect=0;gradientColor=none;html=1;whiteSpace=wrap;fontSize=12;fontStyle=0;container=1;pointerEvents=0;collapsible=0;recursiveResize=0;shape=mxgraph.aws4.group;grIcon=mxgraph.aws4.group_security_group;grStroke=0;strokeColor=#147EBA;fillColor=#E6F2F8;verticalAlign=top;align=left;spacingLeft=30;fontColor=#147EBA;dashed=0;" vertex="1" parent="3HSXQvJnY2hMBEqrZg__-2">
          <mxGeometry x="470" y="69.5" width="110" height="99.5" as="geometry" />
        </mxCell>
        <mxCell id="3HSXQvJnY2hMBEqrZg__-8" value="Private subnet" style="points=[[0,0],[0.25,0],[0.5,0],[0.75,0],[1,0],[1,0.25],[1,0.5],[1,0.75],[1,1],[0.75,1],[0.5,1],[0.25,1],[0,1],[0,0.75],[0,0.5],[0,0.25]];outlineConnect=0;gradientColor=none;html=1;whiteSpace=wrap;fontSize=12;fontStyle=0;container=1;pointerEvents=0;collapsible=0;recursiveResize=0;shape=mxgraph.aws4.group;grIcon=mxgraph.aws4.group_security_group;grStroke=0;strokeColor=#147EBA;fillColor=#E6F2F8;verticalAlign=top;align=left;spacingLeft=30;fontColor=#147EBA;dashed=0;" vertex="1" parent="3HSXQvJnY2hMBEqrZg__-2">
          <mxGeometry x="200" y="230" width="110" height="108" as="geometry" />
        </mxCell>
        <mxCell id="3HSXQvJnY2hMBEqrZg__-23" value="" style="sketch=0;outlineConnect=0;fontColor=#232F3E;gradientColor=none;fillColor=#4D27AA;strokeColor=none;dashed=0;verticalLabelPosition=bottom;verticalAlign=top;align=center;html=1;fontSize=12;fontStyle=0;aspect=fixed;pointerEvents=1;shape=mxgraph.aws4.customer_gateway;" vertex="1" parent="3HSXQvJnY2hMBEqrZg__-2">
          <mxGeometry x="40" y="120.5" width="59" height="59" as="geometry" />
        </mxCell>
        <mxCell id="3HSXQvJnY2hMBEqrZg__-9" value="Public subnet" style="points=[[0,0],[0.25,0],[0.5,0],[0.75,0],[1,0],[1,0.25],[1,0.5],[1,0.75],[1,1],[0.75,1],[0.5,1],[0.25,1],[0,1],[0,0.75],[0,0.5],[0,0.25]];outlineConnect=0;gradientColor=none;html=1;whiteSpace=wrap;fontSize=12;fontStyle=0;container=1;pointerEvents=0;collapsible=0;recursiveResize=0;shape=mxgraph.aws4.group;grIcon=mxgraph.aws4.group_security_group;grStroke=0;strokeColor=#248814;fillColor=#E9F3E6;verticalAlign=top;align=left;spacingLeft=30;fontColor=#248814;dashed=0;" vertex="1" parent="3HSXQvJnY2hMBEqrZg__-2">
          <mxGeometry x="470" y="218" width="117.5" height="120" as="geometry" />
        </mxCell>
        <mxCell id="3HSXQvJnY2hMBEqrZg__-26" value="router" style="rounded=0;whiteSpace=wrap;html=1;fillColor=#e1d5e7;strokeColor=#9673a6;" vertex="1" parent="3HSXQvJnY2hMBEqrZg__-2">
          <mxGeometry x="34.5" y="180.5" width="70" height="15" as="geometry" />
        </mxCell>
        <mxCell id="3HSXQvJnY2hMBEqrZg__-28" value="" style="endArrow=classic;startArrow=classic;html=1;rounded=0;" edge="1" parent="3HSXQvJnY2hMBEqrZg__-2" target="3HSXQvJnY2hMBEqrZg__-23">
          <mxGeometry width="50" height="50" relative="1" as="geometry">
            <mxPoint x="38" y="180" as="sourcePoint" />
            <mxPoint x="88" y="140" as="targetPoint" />
            <Array as="points" />
          </mxGeometry>
        </mxCell>
        <mxCell id="3HSXQvJnY2hMBEqrZg__-38" value="" style="dashed=0;html=1;shape=mxgraph.aws3.permissions;fillColor=#D9A741;gradientColor=none;dashed=0;" vertex="1" parent="3HSXQvJnY2hMBEqrZg__-2">
          <mxGeometry x="410" y="25" width="30" height="35" as="geometry" />
        </mxCell>
        <mxCell id="3HSXQvJnY2hMBEqrZg__-43" value="" style="dashed=0;html=1;shape=mxgraph.aws3.permissions;fillColor=#D9A741;gradientColor=none;dashed=0;" vertex="1" parent="3HSXQvJnY2hMBEqrZg__-2">
          <mxGeometry x="150" y="25" width="30" height="35" as="geometry" />
        </mxCell>
        <mxCell id="3HSXQvJnY2hMBEqrZg__-53" value="" style="strokeWidth=2;html=1;shape=mxgraph.flowchart.annotation_2;align=left;labelPosition=right;pointerEvents=1;" vertex="1" parent="3HSXQvJnY2hMBEqrZg__-2">
          <mxGeometry x="90" y="110" width="80" height="80" as="geometry" />
        </mxCell>
        <mxCell id="3HSXQvJnY2hMBEqrZg__-57" value="" style="outlineConnect=0;dashed=0;verticalLabelPosition=bottom;verticalAlign=top;align=center;html=1;shape=mxgraph.aws3.patch_manager;fillColor=#759C3E;gradientColor=none;" vertex="1" parent="3HSXQvJnY2hMBEqrZg__-2">
          <mxGeometry x="310" y="360" width="55.5" height="50" as="geometry" />
        </mxCell>
        <mxCell id="3HSXQvJnY2hMBEqrZg__-58" value="" style="outlineConnect=0;dashed=0;verticalLabelPosition=bottom;verticalAlign=top;align=center;html=1;shape=mxgraph.aws3.patch_manager;fillColor=#759C3E;gradientColor=none;" vertex="1" parent="3HSXQvJnY2hMBEqrZg__-2">
          <mxGeometry x="552" y="360" width="55.5" height="50" as="geometry" />
        </mxCell>
        <mxCell id="3HSXQvJnY2hMBEqrZg__-59" value="" style="sketch=0;points=[[0,0,0],[0.25,0,0],[0.5,0,0],[0.75,0,0],[1,0,0],[0,1,0],[0.25,1,0],[0.5,1,0],[0.75,1,0],[1,1,0],[0,0.25,0],[0,0.5,0],[0,0.75,0],[1,0.25,0],[1,0.5,0],[1,0.75,0]];points=[[0,0,0],[0.25,0,0],[0.5,0,0],[0.75,0,0],[1,0,0],[0,1,0],[0.25,1,0],[0.5,1,0],[0.75,1,0],[1,1,0],[0,0.25,0],[0,0.5,0],[0,0.75,0],[1,0.25,0],[1,0.5,0],[1,0.75,0]];outlineConnect=0;fontColor=#232F3E;gradientColor=#F34482;gradientDirection=north;fillColor=#BC1356;strokeColor=#ffffff;dashed=0;verticalLabelPosition=bottom;verticalAlign=top;align=center;html=1;fontSize=12;fontStyle=0;aspect=fixed;shape=mxgraph.aws4.resourceIcon;resIcon=mxgraph.aws4.trusted_advisor;" vertex="1" parent="3HSXQvJnY2hMBEqrZg__-2">
          <mxGeometry x="665" width="85" height="85" as="geometry" />
        </mxCell>
        <mxCell id="3HSXQvJnY2hMBEqrZg__-60" value="" style="sketch=0;outlineConnect=0;fontColor=#232F3E;gradientColor=none;fillColor=#B0084D;strokeColor=none;dashed=0;verticalLabelPosition=bottom;verticalAlign=top;align=center;html=1;fontSize=12;fontStyle=0;aspect=fixed;pointerEvents=1;shape=mxgraph.aws4.checklist_performance;" vertex="1" parent="3HSXQvJnY2hMBEqrZg__-2">
          <mxGeometry x="683.5" y="95" width="48" height="48" as="geometry" />
        </mxCell>
        <mxCell id="3HSXQvJnY2hMBEqrZg__-61" value="" style="sketch=0;outlineConnect=0;fontColor=#232F3E;gradientColor=none;fillColor=#B0084D;strokeColor=none;dashed=0;verticalLabelPosition=bottom;verticalAlign=top;align=center;html=1;fontSize=12;fontStyle=0;aspect=fixed;pointerEvents=1;shape=mxgraph.aws4.checklist_cost;" vertex="1" parent="3HSXQvJnY2hMBEqrZg__-2">
          <mxGeometry x="683.5" y="194" width="53" height="53" as="geometry" />
        </mxCell>
        <mxCell id="3HSXQvJnY2hMBEqrZg__-62" value="" style="sketch=0;outlineConnect=0;fontColor=#232F3E;gradientColor=none;fillColor=#B0084D;strokeColor=none;dashed=0;verticalLabelPosition=bottom;verticalAlign=top;align=center;html=1;fontSize=12;fontStyle=0;aspect=fixed;pointerEvents=1;shape=mxgraph.aws4.checklist_fault_tolerant;" vertex="1" parent="3HSXQvJnY2hMBEqrZg__-2">
          <mxGeometry x="683.5" y="294.68" width="53" height="52.32" as="geometry" />
        </mxCell>
        <mxCell id="3HSXQvJnY2hMBEqrZg__-63" value="" style="sketch=0;outlineConnect=0;fontColor=#232F3E;gradientColor=none;fillColor=#B0084D;strokeColor=none;dashed=0;verticalLabelPosition=bottom;verticalAlign=top;align=center;html=1;fontSize=12;fontStyle=0;aspect=fixed;pointerEvents=1;shape=mxgraph.aws4.checklist_security;" vertex="1" parent="3HSXQvJnY2hMBEqrZg__-2">
          <mxGeometry x="683.5" y="410" width="53" height="53" as="geometry" />
        </mxCell>
        <mxCell id="3HSXQvJnY2hMBEqrZg__-64" value="Checklist Performance" style="rounded=1;whiteSpace=wrap;html=1;" vertex="1" parent="3HSXQvJnY2hMBEqrZg__-2">
          <mxGeometry x="652.5" y="145" width="110" height="35.5" as="geometry" />
        </mxCell>
        <mxCell id="3HSXQvJnY2hMBEqrZg__-65" value="Checklist Cost" style="rounded=1;whiteSpace=wrap;html=1;" vertex="1" parent="3HSXQvJnY2hMBEqrZg__-2">
          <mxGeometry x="652.5" y="250" width="110" height="35.5" as="geometry" />
        </mxCell>
        <mxCell id="3HSXQvJnY2hMBEqrZg__-66" value="Fault Tolerance" style="rounded=1;whiteSpace=wrap;html=1;" vertex="1" parent="3HSXQvJnY2hMBEqrZg__-2">
          <mxGeometry x="652.5" y="360" width="110" height="35.5" as="geometry" />
        </mxCell>
        <mxCell id="3HSXQvJnY2hMBEqrZg__-67" value="Checklist Security" style="rounded=1;whiteSpace=wrap;html=1;" vertex="1" parent="3HSXQvJnY2hMBEqrZg__-2">
          <mxGeometry x="655" y="480" width="110" height="35.5" as="geometry" />
        </mxCell>
        <mxCell id="3HSXQvJnY2hMBEqrZg__-73" value="" style="outlineConnect=0;dashed=0;verticalLabelPosition=bottom;verticalAlign=top;align=center;html=1;shape=mxgraph.aws3.vpc_nat_gateway;fillColor=#F58536;gradientColor=none;" vertex="1" parent="3HSXQvJnY2hMBEqrZg__-2">
          <mxGeometry x="470" y="304.84000000000003" width="35" height="32" as="geometry" />
        </mxCell>
        <mxCell id="3HSXQvJnY2hMBEqrZg__-11" value="" style="outlineConnect=0;dashed=0;verticalLabelPosition=bottom;verticalAlign=top;align=center;html=1;shape=mxgraph.aws3.internet_3;fillColor=#D2D3D3;gradientColor=none;" vertex="1" parent="WIyWlLk6GJQsqaUBKTNV-1">
          <mxGeometry y="266" width="79.5" height="54" as="geometry" />
        </mxCell>
        <mxCell id="3HSXQvJnY2hMBEqrZg__-20" value="Internet Gateway" style="rounded=0;whiteSpace=wrap;html=1;fillColor=#e1d5e7;strokeColor=#9673a6;" vertex="1" parent="WIyWlLk6GJQsqaUBKTNV-1">
          <mxGeometry x="140" y="305" width="101" height="15" as="geometry" />
        </mxCell>
        <mxCell id="3HSXQvJnY2hMBEqrZg__-27" value="" style="endArrow=classic;startArrow=classic;html=1;rounded=0;exitX=0.93;exitY=0.93;exitDx=0;exitDy=0;exitPerimeter=0;" edge="1" parent="WIyWlLk6GJQsqaUBKTNV-1" source="3HSXQvJnY2hMBEqrZg__-11" target="3HSXQvJnY2hMBEqrZg__-17">
          <mxGeometry width="50" height="50" relative="1" as="geometry">
            <mxPoint x="90" y="420" as="sourcePoint" />
            <mxPoint x="140" y="370" as="targetPoint" />
          </mxGeometry>
        </mxCell>
        <mxCell id="3HSXQvJnY2hMBEqrZg__-35" style="edgeStyle=orthogonalEdgeStyle;rounded=0;orthogonalLoop=1;jettySize=auto;html=1;exitX=0.5;exitY=1;exitDx=0;exitDy=0;" edge="1" parent="WIyWlLk6GJQsqaUBKTNV-1" source="3HSXQvJnY2hMBEqrZg__-2" target="3HSXQvJnY2hMBEqrZg__-2">
          <mxGeometry relative="1" as="geometry" />
        </mxCell>
        <mxCell id="3HSXQvJnY2hMBEqrZg__-47" value="Internet&amp;nbsp;" style="rounded=0;whiteSpace=wrap;html=1;fillColor=#e1d5e7;strokeColor=#9673a6;" vertex="1" parent="WIyWlLk6GJQsqaUBKTNV-1">
          <mxGeometry x="10.269999999999996" y="330" width="58.95" height="14" as="geometry" />
        </mxCell>
        <mxCell id="3HSXQvJnY2hMBEqrZg__-17" value="" style="sketch=0;outlineConnect=0;fontColor=#232F3E;gradientColor=none;fillColor=#4D27AA;strokeColor=none;dashed=0;verticalLabelPosition=bottom;verticalAlign=top;align=center;html=1;fontSize=12;fontStyle=0;aspect=fixed;pointerEvents=1;shape=mxgraph.aws4.internet_gateway;" vertex="1" parent="WIyWlLk6GJQsqaUBKTNV-1">
          <mxGeometry x="170" y="226" width="58" height="58" as="geometry" />
        </mxCell>
        <mxCell id="3HSXQvJnY2hMBEqrZg__-49" value="" style="endArrow=classic;startArrow=none;html=1;rounded=0;" edge="1" parent="WIyWlLk6GJQsqaUBKTNV-1" source="3HSXQvJnY2hMBEqrZg__-17" target="3HSXQvJnY2hMBEqrZg__-23">
          <mxGeometry width="50" height="50" relative="1" as="geometry">
            <mxPoint x="108" y="330" as="sourcePoint" />
            <mxPoint x="158" y="280" as="targetPoint" />
          </mxGeometry>
        </mxCell>
        <mxCell id="3HSXQvJnY2hMBEqrZg__-42" value="" style="rounded=1;arcSize=10;dashed=0;fillColor=none;gradientColor=none;strokeWidth=2;" vertex="1" parent="WIyWlLk6GJQsqaUBKTNV-1">
          <mxGeometry x="130" y="690" width="197.5" height="365" as="geometry" />
        </mxCell>
        <mxCell id="3HSXQvJnY2hMBEqrZg__-37" value="sec" style="rounded=1;arcSize=10;dashed=0;fillColor=none;gradientColor=none;strokeWidth=2;" vertex="1" parent="WIyWlLk6GJQsqaUBKTNV-1">
          <mxGeometry x="1210" y="177.75" width="180" height="360" as="geometry" />
        </mxCell>
        <mxCell id="3HSXQvJnY2hMBEqrZg__-72" style="edgeStyle=orthogonalEdgeStyle;rounded=0;orthogonalLoop=1;jettySize=auto;html=1;exitX=0.5;exitY=0;exitDx=0;exitDy=0;entryX=0.425;entryY=-0.006;entryDx=0;entryDy=0;entryPerimeter=0;" edge="1" parent="WIyWlLk6GJQsqaUBKTNV-1" source="3HSXQvJnY2hMBEqrZg__-37" target="3HSXQvJnY2hMBEqrZg__-37">
          <mxGeometry relative="1" as="geometry" />
        </mxCell>
      </root>
    </mxGraphModel>
  </diagram>
</mxfile>
